<svg width="100" height="100" viewBox="0 0 100 100" xmlns="http://www.w3.org/2000/svg">
  <defs>
    <linearGradient id="neonGrad" x1="0%" y1="0%" x2="100%" y2="100%">
      <stop offset="0%" style="stop-color:#00f3ff;stop-opacity:1" />
      <stop offset="100%" style="stop-color:#bc13fe;stop-opacity:1" />
    </linearGradient>
    <filter id="glow">
      <feGaussianBlur stdDeviation="2" result="blur"/>
      <feMerge>
        <feMergeNode in="blur"/>
        <feMergeNode in="SourceGraphic"/>
      </feMerge>
    </filter>
  </defs>

  <!-- Database Cylinders -->
  <path d="M30 25 C 30 20 70 20 70 25 C 70 30 30 30 30 25 Z" fill="none" stroke="#00f3ff" stroke-width="2" filter="url(#glow)" />
  <path d="M30 25 V 45 C 30 50 70 50 70 45 V 25" fill="none" stroke="#00f3ff" stroke-width="2" />
  
  <path d="M30 55 C 30 50 70 50 70 55 C 70 60 30 60 30 55 Z" fill="none" stroke="#bc13fe" stroke-width="2" filter="url(#glow)" />
  <path d="M30 55 V 75 C 30 80 70 80 70 75 V 55" fill="none" stroke="#bc13fe" stroke-width="2" />
  
  <!-- Data dots -->
  <circle cx="40" cy="35" r="2" fill="#00f3ff" opacity="0.8" />
  <circle cx="50" cy="35" r="2" fill="#00f3ff" opacity="0.8" />
  <circle cx="60" cy="35" r="2" fill="#00f3ff" opacity="0.8" />
  
  <circle cx="40" cy="65" r="2" fill="#bc13fe" opacity="0.8" />
  <circle cx="50" cy="65" r="2" fill="#bc13fe" opacity="0.8" />
  <circle cx="60" cy="65" r="2" fill="#bc13fe" opacity="0.8" />
</svg>
